<svg width="82" height="20" viewBox="0 0 82 20" fill="none" xmlns="http://www.w3.org/2000/svg">
<path d="M35.5272 9.91406V13.7148C35.3859 13.9017 35.1649 14.1068 34.8641 14.3301C34.5679 14.5488 34.1736 14.738 33.6815 14.8975C33.1893 15.057 32.5763 15.1367 31.8426 15.1367C31.2182 15.1367 30.6463 15.0319 30.1268 14.8223C29.6072 14.6081 29.1583 14.2959 28.7801 13.8857C28.4064 13.4756 28.117 12.9766 27.9119 12.3887C27.7068 11.7962 27.6043 11.1217 27.6043 10.3652V9.6748C27.6043 8.92285 27.6977 8.25293 27.8846 7.66504C28.076 7.07259 28.3494 6.57129 28.7049 6.16113C29.0604 5.75098 29.4887 5.44108 29.9901 5.23145C30.4959 5.01725 31.0679 4.91016 31.7059 4.91016C32.5216 4.91016 33.1961 5.04688 33.7293 5.32031C34.2671 5.58919 34.6818 5.96289 34.9734 6.44141C35.2651 6.91992 35.4497 7.4668 35.5272 8.08203H33.8455C33.7908 7.73568 33.6837 7.42578 33.5242 7.15234C33.3693 6.87891 33.146 6.66471 32.8543 6.50977C32.5672 6.35026 32.1935 6.27051 31.7332 6.27051C31.3367 6.27051 30.9881 6.3457 30.6873 6.49609C30.3865 6.64648 30.1359 6.86751 29.9354 7.15918C29.7394 7.45085 29.5913 7.80632 29.491 8.22559C29.3908 8.64486 29.3406 9.12337 29.3406 9.66113V10.3652C29.3406 10.9121 29.3976 11.3975 29.5115 11.8213C29.63 12.2451 29.7986 12.6029 30.0174 12.8945C30.2407 13.1862 30.5119 13.4072 30.8309 13.5576C31.1499 13.7035 31.5099 13.7764 31.9109 13.7764C32.3029 13.7764 32.6242 13.7445 32.8748 13.6807C33.1255 13.6123 33.3237 13.5326 33.4695 13.4414C33.6199 13.3457 33.7361 13.2546 33.8182 13.168V11.1924H31.7469V9.91406H35.5272ZM37.229 11.3838V11.2266C37.229 10.6934 37.3065 10.1989 37.4615 9.74316C37.6164 9.28288 37.8397 8.88411 38.1314 8.54688C38.4276 8.20508 38.7876 7.94076 39.2115 7.75391C39.6398 7.5625 40.1229 7.4668 40.6607 7.4668C41.203 7.4668 41.6861 7.5625 42.1099 7.75391C42.5383 7.94076 42.9006 8.20508 43.1968 8.54688C43.493 8.88411 43.7186 9.28288 43.8736 9.74316C44.0285 10.1989 44.106 10.6934 44.106 11.2266V11.3838C44.106 11.917 44.0285 12.4115 43.8736 12.8672C43.7186 13.3229 43.493 13.7217 43.1968 14.0635C42.9006 14.4007 42.5406 14.665 42.1167 14.8564C41.6929 15.0433 41.2121 15.1367 40.6743 15.1367C40.132 15.1367 39.6467 15.0433 39.2183 14.8564C38.7945 14.665 38.4344 14.4007 38.1382 14.0635C37.842 13.7217 37.6164 13.3229 37.4615 12.8672C37.3065 12.4115 37.229 11.917 37.229 11.3838ZM38.8765 11.2266V11.3838C38.8765 11.7165 38.9107 12.0309 38.979 12.3271C39.0474 12.6234 39.1545 12.8831 39.3003 13.1064C39.4462 13.3298 39.633 13.5052 39.8609 13.6328C40.0887 13.7604 40.3599 13.8242 40.6743 13.8242C40.9797 13.8242 41.244 13.7604 41.4673 13.6328C41.6952 13.5052 41.882 13.3298 42.0279 13.1064C42.1737 12.8831 42.2808 12.6234 42.3492 12.3271C42.4221 12.0309 42.4585 11.7165 42.4585 11.3838V11.2266C42.4585 10.8984 42.4221 10.5885 42.3492 10.2969C42.2808 10.0007 42.1714 9.73861 42.021 9.51074C41.8752 9.28288 41.6883 9.10514 41.4605 8.97754C41.2372 8.84538 40.9706 8.7793 40.6607 8.7793C40.3508 8.7793 40.0819 8.84538 39.854 8.97754C39.6307 9.10514 39.4462 9.28288 39.3003 9.51074C39.1545 9.73861 39.0474 10.0007 38.979 10.2969C38.9107 10.5885 38.8765 10.8984 38.8765 11.2266ZM45.4524 11.3838V11.2266C45.4524 10.6934 45.5299 10.1989 45.6848 9.74316C45.8398 9.28288 46.0631 8.88411 46.3547 8.54688C46.651 8.20508 47.011 7.94076 47.4348 7.75391C47.8632 7.5625 48.3463 7.4668 48.884 7.4668C49.4264 7.4668 49.9094 7.5625 50.3333 7.75391C50.7616 7.94076 51.1239 8.20508 51.4202 8.54688C51.7164 8.88411 51.942 9.28288 52.0969 9.74316C52.2519 10.1989 52.3293 10.6934 52.3293 11.2266V11.3838C52.3293 11.917 52.2519 12.4115 52.0969 12.8672C51.942 13.3229 51.7164 13.7217 51.4202 14.0635C51.1239 14.4007 50.7639 14.665 50.3401 14.8564C49.9163 15.0433 49.4355 15.1367 48.8977 15.1367C48.3554 15.1367 47.87 15.0433 47.4417 14.8564C47.0178 14.665 46.6578 14.4007 46.3616 14.0635C46.0654 13.7217 45.8398 13.3229 45.6848 12.8672C45.5299 12.4115 45.4524 11.917 45.4524 11.3838ZM47.0999 11.2266V11.3838C47.0999 11.7165 47.134 12.0309 47.2024 12.3271C47.2708 12.6234 47.3779 12.8831 47.5237 13.1064C47.6695 13.3298 47.8564 13.5052 48.0842 13.6328C48.3121 13.7604 48.5833 13.8242 48.8977 13.8242C49.203 13.8242 49.4674 13.7604 49.6907 13.6328C49.9185 13.5052 50.1054 13.3298 50.2512 13.1064C50.3971 12.8831 50.5042 12.6234 50.5725 12.3271C50.6454 12.0309 50.6819 11.7165 50.6819 11.3838V11.2266C50.6819 10.8984 50.6454 10.5885 50.5725 10.2969C50.5042 10.0007 50.3948 9.73861 50.2444 9.51074C50.0986 9.28288 49.9117 9.10514 49.6838 8.97754C49.4605 8.84538 49.1939 8.7793 48.884 8.7793C48.5741 8.7793 48.3053 8.84538 48.0774 8.97754C47.8541 9.10514 47.6695 9.28288 47.5237 9.51074C47.3779 9.73861 47.2708 10.0007 47.2024 10.2969C47.134 10.5885 47.0999 10.8984 47.0999 11.2266ZM58.7275 7.60352H60.2246V14.7949C60.2246 15.4603 60.0833 16.0254 59.8008 16.4902C59.5182 16.9551 59.124 17.3083 58.6181 17.5498C58.1123 17.7959 57.5267 17.9189 56.8613 17.9189C56.5787 17.9189 56.2643 17.8779 55.9179 17.7959C55.5761 17.7139 55.2435 17.5817 54.9199 17.3994C54.6009 17.2217 54.3343 16.987 54.1201 16.6953L54.8926 15.7246C55.1569 16.0391 55.4485 16.2692 55.7676 16.415C56.0866 16.5609 56.4215 16.6338 56.7724 16.6338C57.1507 16.6338 57.472 16.5632 57.7363 16.4219C58.0052 16.2852 58.2125 16.0824 58.3584 15.8135C58.5042 15.5446 58.5771 15.2165 58.5771 14.8291V9.27832L58.7275 7.60352ZM53.7031 11.3838V11.2402C53.7031 10.6797 53.7715 10.1693 53.9082 9.70898C54.0449 9.24414 54.2409 8.84538 54.4961 8.5127C54.7513 8.17546 55.0612 7.91797 55.4258 7.74023C55.7903 7.55794 56.2028 7.4668 56.6631 7.4668C57.1416 7.4668 57.5495 7.55339 57.8867 7.72656C58.2285 7.89974 58.5133 8.14811 58.7412 8.47168C58.969 8.79069 59.1468 9.1735 59.2744 9.62012C59.4065 10.0622 59.5045 10.5544 59.5683 11.0967V11.5547C59.5091 12.0833 59.4088 12.5664 59.2676 13.0039C59.1263 13.4414 58.9394 13.8197 58.707 14.1387C58.4746 14.4577 58.1875 14.7038 57.8457 14.877C57.5084 15.0501 57.1097 15.1367 56.6494 15.1367C56.1982 15.1367 55.7903 15.0433 55.4258 14.8564C55.0657 14.6696 54.7558 14.4076 54.4961 14.0703C54.2409 13.7331 54.0449 13.3366 53.9082 12.8809C53.7715 12.4206 53.7031 11.9215 53.7031 11.3838ZM55.3506 11.2402V11.3838C55.3506 11.721 55.3825 12.0355 55.4463 12.3271C55.5146 12.6188 55.6172 12.8763 55.7539 13.0996C55.8952 13.3184 56.0729 13.4915 56.2871 13.6191C56.5058 13.7422 56.7633 13.8037 57.0595 13.8037C57.4469 13.8037 57.7636 13.7217 58.0097 13.5576C58.2604 13.3936 58.4518 13.1725 58.584 12.8945C58.7207 12.612 58.8164 12.2975 58.8711 11.9512V10.7139C58.8437 10.445 58.7868 10.1943 58.7002 9.96191C58.6181 9.72949 58.5065 9.52669 58.3652 9.35352C58.2239 9.17578 58.0462 9.03906 57.832 8.94336C57.6178 8.8431 57.3649 8.79297 57.0732 8.79297C56.777 8.79297 56.5195 8.85677 56.3008 8.98438C56.082 9.11198 55.902 9.28743 55.7607 9.51074C55.624 9.73405 55.5215 9.99382 55.4531 10.29C55.3847 10.5863 55.3506 10.903 55.3506 11.2402ZM63.9772 4.5V15H62.3229V4.5H63.9772ZM69.3227 15.1367C68.7758 15.1367 68.2813 15.0479 67.8393 14.8701C67.4018 14.6878 67.0281 14.4349 66.7182 14.1113C66.4128 13.7878 66.1781 13.4072 66.0141 12.9697C65.85 12.5322 65.768 12.0605 65.768 11.5547V11.2812C65.768 10.7025 65.8523 10.1784 66.0209 9.70898C66.1895 9.23958 66.4242 8.83854 66.725 8.50586C67.0258 8.16862 67.3813 7.91113 67.7914 7.7334C68.2016 7.55566 68.6459 7.4668 69.1244 7.4668C69.6531 7.4668 70.1156 7.55566 70.5121 7.7334C70.9086 7.91113 71.2367 8.16178 71.4965 8.48535C71.7608 8.80436 71.9568 9.1849 72.0844 9.62695C72.2166 10.069 72.2826 10.5566 72.2826 11.0898V11.7939H66.5678V10.6113H70.6557V10.4814C70.6466 10.1852 70.5873 9.90723 70.4779 9.64746C70.3731 9.3877 70.2113 9.17806 69.9926 9.01855C69.7738 8.85905 69.4822 8.7793 69.1176 8.7793C68.8442 8.7793 68.6003 8.83854 68.3861 8.95703C68.1765 9.07096 68.0011 9.2373 67.8598 9.45605C67.7185 9.6748 67.6091 9.93913 67.5317 10.249C67.4587 10.5544 67.4223 10.8984 67.4223 11.2812V11.5547C67.4223 11.8783 67.4656 12.179 67.5522 12.457C67.6433 12.7305 67.7755 12.9697 67.9486 13.1748C68.1218 13.3799 68.3315 13.5417 68.5776 13.6602C68.8236 13.7741 69.1039 13.8311 69.4184 13.8311C69.8149 13.8311 70.168 13.7513 70.4779 13.5918C70.7878 13.4323 71.0567 13.2067 71.2846 12.915L72.1527 13.7559C71.9932 13.9883 71.7859 14.2116 71.5307 14.4258C71.2755 14.6354 70.9633 14.8063 70.5942 14.9385C70.2296 15.0706 69.8057 15.1367 69.3227 15.1367Z" fill="black"/>
<g clip-path="url(#clip0_1_179)">
<path d="M17.1942 8.33402C17.2706 8.33402 17.3325 8.39888 17.3325 8.47889V10C17.3325 10.5693 17.282 11.126 17.1852 11.666C16.4367 15.8604 12.9111 19.0303 8.68524 18.9998C3.94348 18.9655 0.148642 14.9498 0.15914 9.97971C0.169572 5.01857 4.01003 1 8.74578 1C11.066 1 13.1711 1.96476 14.7167 3.53188C14.7725 3.58845 14.7739 3.68168 14.719 3.7392L12.6659 5.89115C12.613 5.94655 12.5276 5.948 12.4735 5.89396C11.5034 4.92614 10.1909 4.33197 8.74578 4.33197C5.76154 4.33197 3.35845 6.83284 3.33819 9.96066C3.31783 13.109 5.74678 15.668 8.74578 15.668C11.1791 15.668 13.2371 13.9832 13.9158 11.666H8.884C8.80766 11.666 8.74578 11.6011 8.74578 11.5211V8.47886C8.74578 8.39884 8.80766 8.33398 8.884 8.33398H17.1942V8.33402Z" fill="#2196F3"/>
<path d="M17.1939 8.33398H16.1573C16.2336 8.33398 16.2955 8.39885 16.2955 8.47886V9.99997C16.2955 10.5693 16.245 11.126 16.1483 11.666C15.4341 15.6675 12.1925 18.7365 8.22656 18.9837C8.37831 18.9931 8.53105 18.9986 8.68488 18.9997C12.9108 19.0303 16.4363 15.8604 17.1849 11.666C17.2816 11.126 17.3321 10.5693 17.3321 9.99997V8.47883C17.3321 8.39885 17.2702 8.33398 17.1939 8.33398V8.33398Z" fill="#1E88E5"/>
<path d="M3.83357 7.62632L1.22577 5.65138C2.68879 2.87787 5.50804 1 8.74541 1C11.0656 1 13.1707 1.96476 14.7163 3.53188C14.7721 3.58845 14.7736 3.68168 14.7186 3.7392L12.6655 5.89115C12.6128 5.94645 12.5274 5.94817 12.4733 5.89424C11.5033 4.92625 10.1907 4.332 8.74541 4.332C6.56748 4.332 4.69016 5.68144 3.83357 7.62632V7.62632Z" fill="#F44336"/>
<path d="M3.08075 7.05622L3.83359 7.62635C4.61545 5.85117 6.24786 4.57268 8.18288 4.36297C8.19743 4.36132 8.21142 4.35931 8.22625 4.35784C8.05595 4.34089 7.88338 4.33203 7.70883 4.33203C5.74138 4.33203 4.02673 5.41917 3.08075 7.05622V7.05622Z" fill="#E53935"/>
<path d="M13.6797 3.53188C13.7355 3.58845 13.7369 3.68168 13.682 3.73923L12.0156 5.4859C12.1752 5.61317 12.328 5.74929 12.4731 5.894C12.5272 5.94803 12.6126 5.94659 12.6655 5.89118L14.7186 3.73923C14.7735 3.68168 14.772 3.58848 14.7163 3.53188C13.1707 1.96476 11.0656 1 8.74538 1C8.57126 1 8.39852 1.00608 8.22699 1.0168C10.3415 1.14882 12.25 2.08232 13.6797 3.53188V3.53188Z" fill="#E53935"/>
<path d="M15.0443 16.1164C13.4762 17.89 11.2344 19 8.74544 19C5.38369 19 2.47321 16.9751 1.06372 14.0252L3.72609 12.1129C4.52502 14.1965 6.47144 15.668 8.74544 15.668C10.1725 15.668 11.4704 15.0885 12.4365 14.1418L15.0443 16.1164Z" fill="#4CAF50"/>
<path d="M3.72618 12.1129L2.9411 12.6768C3.85293 14.4572 5.64604 15.668 7.70888 15.668C7.88333 15.668 8.05577 15.659 8.226 15.6421C6.17831 15.4375 4.46349 14.0359 3.72618 12.1129Z" fill="#43A047"/>
<path d="M8.74547 19.0001C11.2344 19.0001 13.4763 17.89 15.0443 16.1165L14.4056 15.6328C12.9332 17.5534 10.7245 18.8275 8.22845 18.9837C8.39952 18.9944 8.57185 19.0001 8.74547 19.0001Z" fill="#43A047"/>
<path d="M3.33773 9.99998C3.33773 10.7468 3.47559 11.4599 3.72611 12.1129L1.06371 14.0252C0.48461 12.8141 0.158752 11.4469 0.158752 9.99998C0.158752 8.42273 0.545756 6.94034 1.22578 5.65137L3.83358 7.6263C3.51534 8.3481 3.33773 9.15251 3.33773 9.99998V9.99998Z" fill="#FFC107"/>
<path d="M2.94102 12.6768L3.7261 12.1129C3.47558 11.4599 3.33772 10.7468 3.33772 9.99997C3.33772 9.15249 3.51532 8.34808 3.83357 7.62628L3.08072 7.05615C2.59185 7.90219 2.30812 8.89497 2.30121 9.96066C2.29484 10.9434 2.52718 11.8688 2.94102 12.6768V12.6768Z" fill="#FFB300"/>
</g>
<defs>
<clipPath id="clip0_1_179">
<rect width="17.1733" height="18" fill="white" transform="translate(0.158752 1)"/>
</clipPath>
</defs>
</svg>
